<svg width="410" height="404" viewBox="0 0 410 404" fill="none" xmlns="http://www.w3.org/2000/svg">
  <path d="M399.641 59.5242L215.643 388.545C211.844 395.338 201.575 395.378 197.731 388.618L10.5817 59.5563C6.38087 52.1896 12.6802 43.2665 21.0281 44.7586L205.223 77.6824C206.398 77.8924 207.601 77.8905 208.776 77.6768L389.119 44.8058C397.439 43.2894 403.768 52.1434 399.627 59.5332L399.641 59.5242Z" fill="url(#paint0_linear)"/>
  <path d="M292.965 1.5744L156.801 28.2552C155.563 28.4978 154.43 29.1353 153.616 30.0589C152.801 30.9826 152.357 32.1347 152.357 33.3286V271.273C152.357 274.319 155.181 276.588 158.181 276.03L212.108 266.143C215.519 265.486 218.143 262.576 218.143 259.097V120.801C218.143 117.913 220.408 115.505 223.275 115.095L292.899 104.778C296.286 104.285 298.929 101.415 298.929 97.9937V9.21765C298.929 4.05073 296.391 1.03686 292.965 1.5744Z" fill="url(#paint1_linear)"/>
  <defs>
    <linearGradient id="paint0_linear" x1="6.00017" y1="32.9999" x2="235" y2="344" gradientUnits="userSpaceOnUse">
      <stop stop-color="#41D1FF"/>
      <stop offset="1" stop-color="#BD34FE"/>
    </linearGradient>
    <linearGradient id="paint1_linear" x1="199.5" y1="-12" x2="292" y2="289" gradientUnits="userSpaceOnUse">
      <stop stop-color="#FFEA83"/>
      <stop offset="0.0833333" stop-color="#FFDD35"/>
      <stop offset="1" stop-color="#FFA800"/>
    </linearGradient>
  </defs>
</svg>
